<mxfile host="app.diagrams.net" modified="2024-02-28T17:37:26.536Z" agent="Mozilla/5.0 (Windows NT 10.0; Win64; x64) AppleWebKit/537.36 (KHTML, like Gecko) Chrome/122.0.0.0 Safari/537.36 Edg/122.0.0.0" etag="h4HeD-958fff1drI2uwG" version="23.1.5" type="device">
  <diagram name="Page-1" id="nEMM6kYguk9zAG6f9f3N">
    <mxGraphModel dx="1042" dy="673" grid="1" gridSize="10" guides="1" tooltips="1" connect="1" arrows="1" fold="1" page="1" pageScale="1" pageWidth="1169" pageHeight="1654" math="0" shadow="0">
      <root>
        <mxCell id="0" />
        <mxCell id="1" parent="0" />
        <mxCell id="w4Lu_DOiICSq8x4ba23G-3" value="" style="edgeStyle=orthogonalEdgeStyle;rounded=0;orthogonalLoop=1;jettySize=auto;html=1;" parent="1" source="w4Lu_DOiICSq8x4ba23G-1" target="w4Lu_DOiICSq8x4ba23G-2" edge="1">
          <mxGeometry relative="1" as="geometry" />
        </mxCell>
        <mxCell id="w4Lu_DOiICSq8x4ba23G-1" value="Main&lt;br&gt;Read hash_line counter and next hash" style="rounded=0;whiteSpace=wrap;html=1;fillColor=#fff2cc;strokeColor=#d6b656;" parent="1" vertex="1">
          <mxGeometry x="130" y="50" width="120" height="60" as="geometry" />
        </mxCell>
        <mxCell id="vaK-UqUwYBDGM764JMia-19" value="" style="edgeStyle=orthogonalEdgeStyle;rounded=0;orthogonalLoop=1;jettySize=auto;html=1;endArrow=classic;endFill=1;" parent="1" source="w4Lu_DOiICSq8x4ba23G-2" target="vaK-UqUwYBDGM764JMia-18" edge="1">
          <mxGeometry relative="1" as="geometry" />
        </mxCell>
        <mxCell id="w4Lu_DOiICSq8x4ba23G-2" value="Check_delegations() Block dump" style="rounded=0;whiteSpace=wrap;html=1;fillColor=#f8cecc;strokeColor=#b85450;" parent="1" vertex="1">
          <mxGeometry x="130" y="170" width="120" height="60" as="geometry" />
        </mxCell>
        <mxCell id="vaK-UqUwYBDGM764JMia-26" value="" style="edgeStyle=orthogonalEdgeStyle;rounded=0;orthogonalLoop=1;jettySize=auto;html=1;" parent="1" source="vaK-UqUwYBDGM764JMia-5" target="vaK-UqUwYBDGM764JMia-25" edge="1">
          <mxGeometry relative="1" as="geometry" />
        </mxCell>
        <mxCell id="vaK-UqUwYBDGM764JMia-72" value="" style="edgeStyle=orthogonalEdgeStyle;rounded=0;orthogonalLoop=1;jettySize=auto;html=1;" parent="1" source="vaK-UqUwYBDGM764JMia-5" target="vaK-UqUwYBDGM764JMia-14" edge="1">
          <mxGeometry relative="1" as="geometry" />
        </mxCell>
        <mxCell id="vaK-UqUwYBDGM764JMia-5" value="Count datums,stakes, delegations and stake locks, rewards" style="rounded=0;whiteSpace=wrap;html=1;" parent="1" vertex="1">
          <mxGeometry x="330" y="470" width="120" height="60" as="geometry" />
        </mxCell>
        <mxCell id="vaK-UqUwYBDGM764JMia-30" value="" style="edgeStyle=orthogonalEdgeStyle;rounded=0;orthogonalLoop=1;jettySize=auto;html=1;" parent="1" source="vaK-UqUwYBDGM764JMia-14" target="vaK-UqUwYBDGM764JMia-29" edge="1">
          <mxGeometry relative="1" as="geometry" />
        </mxCell>
        <mxCell id="vaK-UqUwYBDGM764JMia-14" value="Add_block_sign()&lt;br&gt;Signatures" style="rounded=0;whiteSpace=wrap;html=1;fillColor=#fff2cc;strokeColor=#d6b656;" parent="1" vertex="1">
          <mxGeometry x="530" y="470" width="120" height="60" as="geometry" />
        </mxCell>
        <mxCell id="vaK-UqUwYBDGM764JMia-45" value="" style="edgeStyle=orthogonalEdgeStyle;rounded=0;orthogonalLoop=1;jettySize=auto;html=1;" parent="1" source="vaK-UqUwYBDGM764JMia-18" target="vaK-UqUwYBDGM764JMia-44" edge="1">
          <mxGeometry relative="1" as="geometry" />
        </mxCell>
        <mxCell id="vaK-UqUwYBDGM764JMia-18" value="Get_block_date()" style="rounded=0;whiteSpace=wrap;html=1;" parent="1" vertex="1">
          <mxGeometry x="130" y="270" width="120" height="60" as="geometry" />
        </mxCell>
        <mxCell id="vaK-UqUwYBDGM764JMia-70" value="" style="edgeStyle=orthogonalEdgeStyle;rounded=0;orthogonalLoop=1;jettySize=auto;html=1;" parent="1" source="vaK-UqUwYBDGM764JMia-25" target="vaK-UqUwYBDGM764JMia-28" edge="1">
          <mxGeometry relative="1" as="geometry" />
        </mxCell>
        <mxCell id="vaK-UqUwYBDGM764JMia-25" value="Delegation -&amp;gt; Node_wallets" style="whiteSpace=wrap;html=1;rounded=0;fillColor=#fff2cc;strokeColor=#d6b656;" parent="1" vertex="1">
          <mxGeometry x="330" y="570" width="120" height="60" as="geometry" />
        </mxCell>
        <mxCell id="vaK-UqUwYBDGM764JMia-27" value="Stakes&lt;br&gt;block_data" style="rounded=0;whiteSpace=wrap;html=1;fillColor=#fff2cc;strokeColor=#d6b656;" parent="1" vertex="1">
          <mxGeometry x="330" y="790" width="120" height="60" as="geometry" />
        </mxCell>
        <mxCell id="vaK-UqUwYBDGM764JMia-71" value="" style="edgeStyle=orthogonalEdgeStyle;rounded=0;orthogonalLoop=1;jettySize=auto;html=1;" parent="1" source="vaK-UqUwYBDGM764JMia-28" target="vaK-UqUwYBDGM764JMia-27" edge="1">
          <mxGeometry relative="1" as="geometry" />
        </mxCell>
        <UserObject label="Datums" tooltip="" id="vaK-UqUwYBDGM764JMia-28">
          <mxCell style="rounded=0;whiteSpace=wrap;html=1;fillColor=#fff2cc;strokeColor=#d6b656;" parent="1" vertex="1">
            <mxGeometry x="330" y="680" width="120" height="60" as="geometry" />
          </mxCell>
        </UserObject>
        <mxCell id="vaK-UqUwYBDGM764JMia-33" value="" style="edgeStyle=orthogonalEdgeStyle;rounded=0;orthogonalLoop=1;jettySize=auto;html=1;" parent="1" source="vaK-UqUwYBDGM764JMia-29" target="vaK-UqUwYBDGM764JMia-32" edge="1">
          <mxGeometry relative="1" as="geometry" />
        </mxCell>
        <mxCell id="vaK-UqUwYBDGM764JMia-36" value="" style="edgeStyle=orthogonalEdgeStyle;rounded=0;orthogonalLoop=1;jettySize=auto;html=1;" parent="1" source="vaK-UqUwYBDGM764JMia-29" target="vaK-UqUwYBDGM764JMia-35" edge="1">
          <mxGeometry relative="1" as="geometry" />
        </mxCell>
        <mxCell id="vaK-UqUwYBDGM764JMia-29" value="pkey in cellframe_data" style="rhombus;whiteSpace=wrap;html=1;rounded=0;fillColor=#fff2cc;strokeColor=#d6b656;" parent="1" vertex="1">
          <mxGeometry x="710" y="450" width="100" height="100" as="geometry" />
        </mxCell>
        <mxCell id="vaK-UqUwYBDGM764JMia-76" style="edgeStyle=orthogonalEdgeStyle;rounded=0;orthogonalLoop=1;jettySize=auto;html=1;entryX=1;entryY=0.5;entryDx=0;entryDy=0;" parent="1" source="vaK-UqUwYBDGM764JMia-32" target="eXyH-hDDAz1grfmfmLJK-12" edge="1">
          <mxGeometry relative="1" as="geometry">
            <Array as="points">
              <mxPoint x="970" y="1120" />
              <mxPoint x="470" y="1120" />
            </Array>
          </mxGeometry>
        </mxCell>
        <mxCell id="8WmXhRxBRQf2-hDD4rfy-7" value="" style="edgeStyle=orthogonalEdgeStyle;rounded=0;orthogonalLoop=1;jettySize=auto;html=1;" edge="1" parent="1" source="vaK-UqUwYBDGM764JMia-32" target="8WmXhRxBRQf2-hDD4rfy-6">
          <mxGeometry relative="1" as="geometry" />
        </mxCell>
        <mxCell id="vaK-UqUwYBDGM764JMia-32" value="Add block sign()" style="whiteSpace=wrap;html=1;rounded=0;fillColor=#fff2cc;strokeColor=#d6b656;" parent="1" vertex="1">
          <mxGeometry x="910" y="470" width="120" height="60" as="geometry" />
        </mxCell>
        <mxCell id="vaK-UqUwYBDGM764JMia-34" value="Yes" style="text;html=1;align=center;verticalAlign=middle;resizable=0;points=[];autosize=1;strokeColor=none;fillColor=none;" parent="1" vertex="1">
          <mxGeometry x="830" y="470" width="40" height="30" as="geometry" />
        </mxCell>
        <mxCell id="vaK-UqUwYBDGM764JMia-39" value="" style="edgeStyle=orthogonalEdgeStyle;rounded=0;orthogonalLoop=1;jettySize=auto;html=1;" parent="1" source="vaK-UqUwYBDGM764JMia-35" target="vaK-UqUwYBDGM764JMia-38" edge="1">
          <mxGeometry relative="1" as="geometry" />
        </mxCell>
        <mxCell id="8WmXhRxBRQf2-hDD4rfy-3" value="" style="edgeStyle=orthogonalEdgeStyle;rounded=0;orthogonalLoop=1;jettySize=auto;html=1;" edge="1" parent="1" source="vaK-UqUwYBDGM764JMia-35" target="8WmXhRxBRQf2-hDD4rfy-2">
          <mxGeometry relative="1" as="geometry" />
        </mxCell>
        <mxCell id="vaK-UqUwYBDGM764JMia-35" value="CLI list keys" style="whiteSpace=wrap;html=1;rounded=0;fillColor=#f8cecc;strokeColor=#b85450;" parent="1" vertex="1">
          <mxGeometry x="700" y="600" width="120" height="60" as="geometry" />
        </mxCell>
        <mxCell id="vaK-UqUwYBDGM764JMia-41" value="" style="edgeStyle=orthogonalEdgeStyle;rounded=0;orthogonalLoop=1;jettySize=auto;html=1;" parent="1" source="vaK-UqUwYBDGM764JMia-38" target="vaK-UqUwYBDGM764JMia-40" edge="1">
          <mxGeometry relative="1" as="geometry" />
        </mxCell>
        <mxCell id="vaK-UqUwYBDGM764JMia-38" value="GET tx_hash&lt;br&gt;address, stake, weight, active_status" style="whiteSpace=wrap;html=1;rounded=0;" parent="1" vertex="1">
          <mxGeometry x="700" y="690" width="120" height="60" as="geometry" />
        </mxCell>
        <mxCell id="vaK-UqUwYBDGM764JMia-43" value="" style="edgeStyle=orthogonalEdgeStyle;rounded=0;orthogonalLoop=1;jettySize=auto;html=1;" parent="1" source="vaK-UqUwYBDGM764JMia-40" target="vaK-UqUwYBDGM764JMia-42" edge="1">
          <mxGeometry relative="1" as="geometry" />
        </mxCell>
        <mxCell id="vaK-UqUwYBDGM764JMia-40" value="Node dump" style="whiteSpace=wrap;html=1;rounded=0;fillColor=#f8cecc;strokeColor=#b85450;" parent="1" vertex="1">
          <mxGeometry x="700" y="780" width="120" height="60" as="geometry" />
        </mxCell>
        <mxCell id="vaK-UqUwYBDGM764JMia-42" value="Create node table add fresh node flag" style="whiteSpace=wrap;html=1;rounded=0;fillColor=#fff2cc;strokeColor=#d6b656;" parent="1" vertex="1">
          <mxGeometry x="700" y="880" width="120" height="60" as="geometry" />
        </mxCell>
        <mxCell id="vaK-UqUwYBDGM764JMia-47" value="" style="edgeStyle=orthogonalEdgeStyle;rounded=0;orthogonalLoop=1;jettySize=auto;html=1;" parent="1" source="vaK-UqUwYBDGM764JMia-44" target="vaK-UqUwYBDGM764JMia-46" edge="1">
          <mxGeometry relative="1" as="geometry" />
        </mxCell>
        <mxCell id="vaK-UqUwYBDGM764JMia-44" value="Check_day_counter()&lt;br&gt;Get current day from DB and compare with block date" style="whiteSpace=wrap;html=1;rounded=0;fillColor=#fff2cc;strokeColor=#d6b656;" parent="1" vertex="1">
          <mxGeometry x="130" y="370" width="120" height="60" as="geometry" />
        </mxCell>
        <mxCell id="vaK-UqUwYBDGM764JMia-68" value="" style="edgeStyle=orthogonalEdgeStyle;rounded=0;orthogonalLoop=1;jettySize=auto;html=1;" parent="1" source="vaK-UqUwYBDGM764JMia-46" target="vaK-UqUwYBDGM764JMia-5" edge="1">
          <mxGeometry relative="1" as="geometry" />
        </mxCell>
        <mxCell id="vaK-UqUwYBDGM764JMia-69" value="No" style="edgeLabel;html=1;align=center;verticalAlign=middle;resizable=0;points=[];" parent="vaK-UqUwYBDGM764JMia-68" vertex="1" connectable="0">
          <mxGeometry x="-0.2221" y="-1" relative="1" as="geometry">
            <mxPoint as="offset" />
          </mxGeometry>
        </mxCell>
        <mxCell id="eXyH-hDDAz1grfmfmLJK-4" value="" style="edgeStyle=orthogonalEdgeStyle;rounded=0;orthogonalLoop=1;jettySize=auto;html=1;" parent="1" source="vaK-UqUwYBDGM764JMia-46" target="eXyH-hDDAz1grfmfmLJK-1" edge="1">
          <mxGeometry relative="1" as="geometry" />
        </mxCell>
        <mxCell id="vaK-UqUwYBDGM764JMia-46" value="Has day changed?" style="rhombus;whiteSpace=wrap;html=1;rounded=0;" parent="1" vertex="1">
          <mxGeometry x="150" y="460" width="80" height="80" as="geometry" />
        </mxCell>
        <mxCell id="vaK-UqUwYBDGM764JMia-56" value="" style="edgeStyle=orthogonalEdgeStyle;rounded=0;orthogonalLoop=1;jettySize=auto;html=1;" parent="1" source="vaK-UqUwYBDGM764JMia-52" target="vaK-UqUwYBDGM764JMia-55" edge="1">
          <mxGeometry relative="1" as="geometry" />
        </mxCell>
        <mxCell id="vaK-UqUwYBDGM764JMia-52" value="Update flags, set day_counter += 1" style="whiteSpace=wrap;html=1;rounded=0;fillColor=#fff2cc;strokeColor=#d6b656;" parent="1" vertex="1">
          <mxGeometry x="130" y="680" width="120" height="60" as="geometry" />
        </mxCell>
        <mxCell id="vaK-UqUwYBDGM764JMia-60" value="" style="edgeStyle=orthogonalEdgeStyle;rounded=0;orthogonalLoop=1;jettySize=auto;html=1;" parent="1" source="vaK-UqUwYBDGM764JMia-55" target="vaK-UqUwYBDGM764JMia-59" edge="1">
          <mxGeometry relative="1" as="geometry" />
        </mxCell>
        <mxCell id="vaK-UqUwYBDGM764JMia-55" value="SUM 7 day and 30 day blocks to validators" style="whiteSpace=wrap;html=1;rounded=0;fillColor=#fff2cc;strokeColor=#d6b656;" parent="1" vertex="1">
          <mxGeometry x="130" y="780" width="120" height="60" as="geometry" />
        </mxCell>
        <mxCell id="vaK-UqUwYBDGM764JMia-62" value="" style="edgeStyle=orthogonalEdgeStyle;rounded=0;orthogonalLoop=1;jettySize=auto;html=1;" parent="1" source="vaK-UqUwYBDGM764JMia-59" target="vaK-UqUwYBDGM764JMia-61" edge="1">
          <mxGeometry relative="1" as="geometry" />
        </mxCell>
        <mxCell id="vaK-UqUwYBDGM764JMia-59" value="Update transactions, cumul_transactions and nework weight&lt;br&gt;in transactions" style="whiteSpace=wrap;html=1;fillColor=#fff2cc;strokeColor=#d6b656;rounded=0;" parent="1" vertex="1">
          <mxGeometry x="130" y="880" width="120" height="60" as="geometry" />
        </mxCell>
        <mxCell id="vaK-UqUwYBDGM764JMia-61" value="Initialize new day()&lt;br&gt;Get all node names&lt;br&gt;add 1 line" style="whiteSpace=wrap;html=1;fillColor=#fff2cc;strokeColor=#d6b656;rounded=0;" parent="1" vertex="1">
          <mxGeometry x="130" y="970" width="120" height="60" as="geometry" />
        </mxCell>
        <mxCell id="vaK-UqUwYBDGM764JMia-63" value="" style="endArrow=classic;html=1;rounded=0;exitX=0;exitY=0.5;exitDx=0;exitDy=0;entryX=0;entryY=0.25;entryDx=0;entryDy=0;" parent="1" source="vaK-UqUwYBDGM764JMia-61" target="w4Lu_DOiICSq8x4ba23G-2" edge="1">
          <mxGeometry width="50" height="50" relative="1" as="geometry">
            <mxPoint x="80" y="890" as="sourcePoint" />
            <mxPoint x="110" y="170" as="targetPoint" />
            <Array as="points">
              <mxPoint x="60" y="1000" />
              <mxPoint x="60" y="185" />
            </Array>
          </mxGeometry>
        </mxCell>
        <mxCell id="vaK-UqUwYBDGM764JMia-73" value="No" style="text;html=1;align=center;verticalAlign=middle;resizable=0;points=[];autosize=1;strokeColor=none;fillColor=none;" parent="1" vertex="1">
          <mxGeometry x="750" y="560" width="40" height="30" as="geometry" />
        </mxCell>
        <mxCell id="vaK-UqUwYBDGM764JMia-78" value="" style="edgeStyle=orthogonalEdgeStyle;rounded=0;orthogonalLoop=1;jettySize=auto;html=1;" parent="1" source="vaK-UqUwYBDGM764JMia-75" target="vaK-UqUwYBDGM764JMia-77" edge="1">
          <mxGeometry relative="1" as="geometry" />
        </mxCell>
        <mxCell id="vaK-UqUwYBDGM764JMia-75" value="Add last hash()" style="rounded=0;whiteSpace=wrap;html=1;fillColor=#fff2cc;strokeColor=#d6b656;" parent="1" vertex="1">
          <mxGeometry x="130" y="1090" width="120" height="60" as="geometry" />
        </mxCell>
        <mxCell id="vaK-UqUwYBDGM764JMia-80" value="" style="edgeStyle=orthogonalEdgeStyle;rounded=0;orthogonalLoop=1;jettySize=auto;html=1;" parent="1" source="vaK-UqUwYBDGM764JMia-77" target="vaK-UqUwYBDGM764JMia-79" edge="1">
          <mxGeometry relative="1" as="geometry" />
        </mxCell>
        <mxCell id="8WmXhRxBRQf2-hDD4rfy-1" style="edgeStyle=orthogonalEdgeStyle;rounded=0;orthogonalLoop=1;jettySize=auto;html=1;" edge="1" parent="1" source="vaK-UqUwYBDGM764JMia-77">
          <mxGeometry relative="1" as="geometry">
            <mxPoint x="60" y="1000" as="targetPoint" />
          </mxGeometry>
        </mxCell>
        <mxCell id="vaK-UqUwYBDGM764JMia-77" value="Increase hash line counter()" style="whiteSpace=wrap;html=1;fillColor=#fff2cc;strokeColor=#d6b656;rounded=0;" parent="1" vertex="1">
          <mxGeometry x="130" y="1180" width="120" height="60" as="geometry" />
        </mxCell>
        <mxCell id="vaK-UqUwYBDGM764JMia-82" value="" style="edgeStyle=orthogonalEdgeStyle;rounded=0;orthogonalLoop=1;jettySize=auto;html=1;" parent="1" source="vaK-UqUwYBDGM764JMia-79" target="vaK-UqUwYBDGM764JMia-81" edge="1">
          <mxGeometry relative="1" as="geometry" />
        </mxCell>
        <mxCell id="vaK-UqUwYBDGM764JMia-79" value="Update non validators list()" style="whiteSpace=wrap;html=1;fillColor=#f8cecc;strokeColor=#b85450;rounded=0;" parent="1" vertex="1">
          <mxGeometry x="330" y="1180" width="120" height="60" as="geometry" />
        </mxCell>
        <mxCell id="vaK-UqUwYBDGM764JMia-84" value="" style="edgeStyle=orthogonalEdgeStyle;rounded=0;orthogonalLoop=1;jettySize=auto;html=1;" parent="1" source="vaK-UqUwYBDGM764JMia-81" target="vaK-UqUwYBDGM764JMia-83" edge="1">
          <mxGeometry relative="1" as="geometry" />
        </mxCell>
        <mxCell id="vaK-UqUwYBDGM764JMia-81" value="Update ip locations()" style="whiteSpace=wrap;html=1;fillColor=#fff2cc;strokeColor=#d6b656;rounded=0;" parent="1" vertex="1">
          <mxGeometry x="530" y="1180" width="120" height="60" as="geometry" />
        </mxCell>
        <mxCell id="vaK-UqUwYBDGM764JMia-86" value="" style="edgeStyle=orthogonalEdgeStyle;rounded=0;orthogonalLoop=1;jettySize=auto;html=1;" parent="1" source="vaK-UqUwYBDGM764JMia-83" target="vaK-UqUwYBDGM764JMia-85" edge="1">
          <mxGeometry relative="1" as="geometry" />
        </mxCell>
        <mxCell id="vaK-UqUwYBDGM764JMia-83" value="Update node active statuses and data()" style="whiteSpace=wrap;html=1;fillColor=#f8cecc;strokeColor=#b85450;rounded=0;" parent="1" vertex="1">
          <mxGeometry x="730" y="1180" width="120" height="60" as="geometry" />
        </mxCell>
        <mxCell id="vaK-UqUwYBDGM764JMia-88" value="" style="edgeStyle=orthogonalEdgeStyle;rounded=0;orthogonalLoop=1;jettySize=auto;html=1;" parent="1" source="vaK-UqUwYBDGM764JMia-85" target="vaK-UqUwYBDGM764JMia-87" edge="1">
          <mxGeometry relative="1" as="geometry" />
        </mxCell>
        <mxCell id="vaK-UqUwYBDGM764JMia-85" value="Update block reward()" style="whiteSpace=wrap;html=1;fillColor=#fff2cc;strokeColor=#d6b656;rounded=0;" parent="1" vertex="1">
          <mxGeometry x="930" y="1180" width="120" height="60" as="geometry" />
        </mxCell>
        <mxCell id="vaK-UqUwYBDGM764JMia-90" value="" style="edgeStyle=orthogonalEdgeStyle;rounded=0;orthogonalLoop=1;jettySize=auto;html=1;" parent="1" source="vaK-UqUwYBDGM764JMia-87" target="vaK-UqUwYBDGM764JMia-89" edge="1">
          <mxGeometry relative="1" as="geometry" />
        </mxCell>
        <mxCell id="vaK-UqUwYBDGM764JMia-87" value="Check if fresh was non_validator()" style="whiteSpace=wrap;html=1;fillColor=#fff2cc;strokeColor=#d6b656;rounded=0;" parent="1" vertex="1">
          <mxGeometry x="930" y="1320" width="120" height="60" as="geometry" />
        </mxCell>
        <mxCell id="vaK-UqUwYBDGM764JMia-92" value="" style="edgeStyle=orthogonalEdgeStyle;rounded=0;orthogonalLoop=1;jettySize=auto;html=1;" parent="1" source="vaK-UqUwYBDGM764JMia-89" target="vaK-UqUwYBDGM764JMia-91" edge="1">
          <mxGeometry relative="1" as="geometry" />
        </mxCell>
        <mxCell id="vaK-UqUwYBDGM764JMia-89" value="Update node versions()" style="whiteSpace=wrap;html=1;fillColor=#fff2cc;strokeColor=#d6b656;rounded=0;" parent="1" vertex="1">
          <mxGeometry x="730" y="1320" width="120" height="60" as="geometry" />
        </mxCell>
        <mxCell id="vaK-UqUwYBDGM764JMia-94" value="" style="edgeStyle=orthogonalEdgeStyle;rounded=0;orthogonalLoop=1;jettySize=auto;html=1;" parent="1" source="vaK-UqUwYBDGM764JMia-91" target="vaK-UqUwYBDGM764JMia-93" edge="1">
          <mxGeometry relative="1" as="geometry" />
        </mxCell>
        <mxCell id="vaK-UqUwYBDGM764JMia-91" value="Check wallet database date()" style="whiteSpace=wrap;html=1;fillColor=#fff2cc;strokeColor=#d6b656;rounded=0;" parent="1" vertex="1">
          <mxGeometry x="530" y="1320" width="120" height="60" as="geometry" />
        </mxCell>
        <mxCell id="vaK-UqUwYBDGM764JMia-93" value="Update wallet database if needed()" style="whiteSpace=wrap;html=1;fillColor=#fff2cc;strokeColor=#d6b656;rounded=0;" parent="1" vertex="1">
          <mxGeometry x="330" y="1320" width="120" height="60" as="geometry" />
        </mxCell>
        <mxCell id="eXyH-hDDAz1grfmfmLJK-3" value="" style="edgeStyle=orthogonalEdgeStyle;rounded=0;orthogonalLoop=1;jettySize=auto;html=1;" parent="1" source="eXyH-hDDAz1grfmfmLJK-1" target="vaK-UqUwYBDGM764JMia-52" edge="1">
          <mxGeometry relative="1" as="geometry" />
        </mxCell>
        <mxCell id="eXyH-hDDAz1grfmfmLJK-1" value="Steal node info before next so we have data form the end of day" style="rounded=0;whiteSpace=wrap;html=1;fillColor=#f8cecc;strokeColor=#b85450;" parent="1" vertex="1">
          <mxGeometry x="130" y="570" width="120" height="60" as="geometry" />
        </mxCell>
        <mxCell id="eXyH-hDDAz1grfmfmLJK-8" value="" style="curved=1;endArrow=classic;html=1;rounded=0;exitX=0;exitY=0;exitDx=130;exitDy=10;exitPerimeter=0;entryX=0.804;entryY=-0.027;entryDx=0;entryDy=0;entryPerimeter=0;dashed=1;dashPattern=1 2;targetPerimeterSpacing=0;sourcePerimeterSpacing=0;endSize=9;strokeColor=#0000FF;" parent="1" target="eXyH-hDDAz1grfmfmLJK-1" edge="1">
          <mxGeometry width="50" height="50" relative="1" as="geometry">
            <mxPoint x="360" y="140" as="sourcePoint" />
            <mxPoint x="440" y="320" as="targetPoint" />
            <Array as="points">
              <mxPoint x="270" y="220" />
              <mxPoint x="320" y="520" />
            </Array>
          </mxGeometry>
        </mxCell>
        <mxCell id="eXyH-hDDAz1grfmfmLJK-11" value="" style="curved=1;endArrow=classic;html=1;rounded=0;exitX=0;exitY=0.5;exitDx=0;exitDy=0;exitPerimeter=0;entryX=0.5;entryY=0;entryDx=0;entryDy=0;dashed=1;dashPattern=1 2;targetPerimeterSpacing=0;sourcePerimeterSpacing=0;endSize=9;strokeColor=#0000FF;" parent="1" target="vaK-UqUwYBDGM764JMia-14" edge="1">
          <mxGeometry width="50" height="50" relative="1" as="geometry">
            <mxPoint x="560" y="260" as="sourcePoint" />
            <mxPoint x="616" y="438" as="targetPoint" />
            <Array as="points">
              <mxPoint x="690" y="240" />
            </Array>
          </mxGeometry>
        </mxCell>
        <mxCell id="eXyH-hDDAz1grfmfmLJK-13" value="" style="edgeStyle=orthogonalEdgeStyle;rounded=0;orthogonalLoop=1;jettySize=auto;html=1;" parent="1" source="eXyH-hDDAz1grfmfmLJK-12" target="vaK-UqUwYBDGM764JMia-75" edge="1">
          <mxGeometry relative="1" as="geometry" />
        </mxCell>
        <mxCell id="eXyH-hDDAz1grfmfmLJK-12" value="Increase daily transactions()" style="rounded=0;whiteSpace=wrap;html=1;fillColor=#fff2cc;strokeColor=#d6b656;" parent="1" vertex="1">
          <mxGeometry x="330" y="1090" width="120" height="60" as="geometry" />
        </mxCell>
        <mxCell id="eXyH-hDDAz1grfmfmLJK-15" value="" style="curved=1;endArrow=classic;html=1;rounded=0;exitX=0;exitY=0.5;exitDx=0;exitDy=0;exitPerimeter=0;entryX=0.5;entryY=0;entryDx=0;entryDy=0;dashed=1;dashPattern=1 2;targetPerimeterSpacing=7;sourcePerimeterSpacing=0;endSize=9;strokeColor=#0000FF;" parent="1" target="vaK-UqUwYBDGM764JMia-32" edge="1">
          <mxGeometry width="50" height="50" relative="1" as="geometry">
            <mxPoint x="1000" y="250" as="sourcePoint" />
            <mxPoint x="1010" y="440" as="targetPoint" />
            <Array as="points">
              <mxPoint x="1110" y="210" />
            </Array>
          </mxGeometry>
        </mxCell>
        <mxCell id="eXyH-hDDAz1grfmfmLJK-17" value="" style="curved=1;endArrow=classic;html=1;rounded=0;entryX=1;entryY=0;entryDx=0;entryDy=0;dashed=1;dashPattern=1 2;targetPerimeterSpacing=0;sourcePerimeterSpacing=0;endSize=9;strokeColor=#0000FF;exitX=0;exitY=0;exitDx=140;exitDy=60;exitPerimeter=0;" parent="1" target="vaK-UqUwYBDGM764JMia-61" edge="1">
          <mxGeometry width="50" height="50" relative="1" as="geometry">
            <mxPoint x="500" y="1000" as="sourcePoint" />
            <mxPoint x="470" y="850" as="targetPoint" />
            <Array as="points">
              <mxPoint x="430" y="970" />
              <mxPoint x="310" y="940" />
            </Array>
          </mxGeometry>
        </mxCell>
        <mxCell id="eXyH-hDDAz1grfmfmLJK-18" value="&lt;h1 style=&quot;font-size: 13px;&quot;&gt;&lt;span style=&quot;font-weight: normal;&quot;&gt;1st signer gets signer number 1 and the rest 0.&lt;/span&gt;&lt;br style=&quot;border-color: var(--border-color); font-size: 12px; font-weight: 400; text-align: center;&quot;&gt;&lt;span style=&quot;font-size: 12px; font-weight: 400; text-align: center;&quot;&gt;These signatures are then distributed accordingly...&lt;/span&gt;&lt;br&gt;&lt;/h1&gt;" style="text;html=1;spacing=5;spacingTop=-20;whiteSpace=wrap;overflow=hidden;rounded=0;" parent="1" vertex="1">
          <mxGeometry x="430" y="240" width="190" height="70" as="geometry" />
        </mxCell>
        <mxCell id="eXyH-hDDAz1grfmfmLJK-19" value="&#xa;&lt;span style=&quot;color: rgb(0, 0, 0); font-family: Helvetica; font-size: 12px; font-style: normal; font-variant-ligatures: normal; font-variant-caps: normal; font-weight: 400; letter-spacing: normal; orphans: 2; text-align: center; text-indent: 0px; text-transform: none; widows: 2; word-spacing: 0px; -webkit-text-stroke-width: 0px; background-color: rgb(251, 251, 251); text-decoration-thickness: initial; text-decoration-style: initial; text-decoration-color: initial; float: none; display: inline !important;&quot;&gt;Steal node info will list keys and copy node stake, weight and address and also mark node active or inactive&lt;/span&gt;&#xa;&#xa;" style="text;html=1;spacing=5;spacingTop=-20;whiteSpace=wrap;overflow=hidden;rounded=0;" parent="1" vertex="1">
          <mxGeometry x="370" y="100" width="190" height="80" as="geometry" />
        </mxCell>
        <mxCell id="eXyH-hDDAz1grfmfmLJK-20" value="Daily signatures += 1" style="text;html=1;spacing=5;spacingTop=-20;whiteSpace=wrap;overflow=hidden;rounded=0;" parent="1" vertex="1">
          <mxGeometry x="880" y="260" width="150" height="20" as="geometry" />
        </mxCell>
        <mxCell id="eXyH-hDDAz1grfmfmLJK-23" value="&lt;br&gt;&lt;br&gt;SUM all_time_signatures and all_time_rewards" style="text;html=1;spacing=5;spacingTop=-20;whiteSpace=wrap;overflow=hidden;rounded=0;" parent="1" vertex="1">
          <mxGeometry x="460" y="990" width="190" height="80" as="geometry" />
        </mxCell>
        <mxCell id="8WmXhRxBRQf2-hDD4rfy-5" value="" style="edgeStyle=orthogonalEdgeStyle;rounded=0;orthogonalLoop=1;jettySize=auto;html=1;" edge="1" parent="1" source="8WmXhRxBRQf2-hDD4rfy-2" target="8WmXhRxBRQf2-hDD4rfy-4">
          <mxGeometry relative="1" as="geometry" />
        </mxCell>
        <mxCell id="8WmXhRxBRQf2-hDD4rfy-2" value="Not in list keys?&lt;br&gt;We still have old table?" style="whiteSpace=wrap;html=1;rounded=0;" vertex="1" parent="1">
          <mxGeometry x="500" y="600" width="120" height="60" as="geometry" />
        </mxCell>
        <mxCell id="8WmXhRxBRQf2-hDD4rfy-4" value="Add_block_sign()" style="whiteSpace=wrap;html=1;rounded=0;fillColor=#fff2cc;strokeColor=#d6b656;" vertex="1" parent="1">
          <mxGeometry x="500" y="740" width="120" height="60" as="geometry" />
        </mxCell>
        <mxCell id="8WmXhRxBRQf2-hDD4rfy-6" value="Check alerts()" style="whiteSpace=wrap;html=1;fillColor=#fff2cc;strokeColor=#d6b656;rounded=0;" vertex="1" parent="1">
          <mxGeometry x="910" y="610" width="120" height="60" as="geometry" />
        </mxCell>
      </root>
    </mxGraphModel>
  </diagram>
</mxfile>
